{
.appVersion = "3343";
.formatVersion = 3;
DisplayStrings = (
ABCDEFGHIJKLMNOPQRSTUVWXYZabcdefghijklmnopqrstuvwxyz,
"glisten glisten",
g,
"glib blitz slip",
"glib bold",
" HHRHHOOROO"
);
date = "2025-06-16 18:29:40 +0000";
familyName = "SuperbEllipse Proportional Sans";
fontMaster = (
{
id = m01;
metricValues = (
{
over = 16;
pos = 760;
},
{
over = 16;
pos = 700;
},
{
over = 16;
pos = 500;
},
{
over = -16;
},
{
over = -16;
pos = -212;
},
{
}
);
name = Regular;
userData = {
GSCornerRadius = 5;
};
}
);
glyphs = (
{
glyphname = A;
lastChange = "2025-06-26 18:28:40 +0000";
layers = (
{
layerId = m01;
shapes = (
{
closed = 1;
nodes = (
(338,694,ls),
(339,698,o),
(337,700,o),
(334,700,cs),
(262,700,ls),
(259,700,o),
(258,698,o),
(257,696,cs),
(22,6,ls),
(21,2,o),
(23,0,o),
(26,0,cs),
(98,0,ls),
(101,0,o),
(102,2,o),
(103,4,cs)
);
},
{
closed = 1;
nodes = (
(305,700,ls),
(302,700,o),
(300,698,o),
(301,694,cs),
(546,4,ls),
(547,2,o),
(548,0,o),
(551,0,cs),
(582,0,ls),
(585,0,o),
(587,2,o),
(586,6,cs),
(341,696,ls),
(340,698,o),
(339,700,o),
(336,700,cs)
);
},
{
closed = 1;
nodes = (
(442,304,ls),
(445,304,o),
(447,306,o),
(447,309,cs),
(447,330,ls),
(447,333,o),
(445,335,o),
(442,335,cs),
(188,335,ls),
(185,335,o),
(183,333,o),
(183,330,cs),
(183,309,ls),
(183,306,o),
(185,304,o),
(188,304,cs)
);
}
);
width = 608;
}
);
unicode = 65;
},
{
glyphname = B;
lastChange = "2025-06-26 18:28:40 +0000";
layers = (
{
layerId = m01;
shapes = (
{
closed = 1;
nodes = (
(315,0,l),
(425,0,o),
(535,51,o),
(535,188,cs),
(535,188,o),
(535,167,o),
(535,224,cs),
(535,328,o),
(415,406,o),
(305,406,c),
(124,405,ls),
(121,405,o),
(119,403,o),
(119,400,cs),
(119,381,ls),
(119,378,o),
(121,376,o),
(124,376,cs),
(305,376,l),
(402,376,o),
(452,303,o),
(452,232,cs),
(452,170,ls),
(452,83,o),
(430,30,o),
(315,30,c),
(142,30,ls),
(139,30,o),
(137,29,o),
(137,25,cs),
(139,5,ls),
(139,1,o),
(141,0,o),
(144,0,cs)
);
},
{
closed = 1;
nodes = (
(142,0,ls),
(145,0,o),
(147,2,o),
(147,5,cs),
(147,695,ls),
(147,698,o),
(145,700,o),
(142,700,cs),
(70,700,ls),
(67,700,o),
(65,698,o),
(65,695,cs),
(65,5,ls),
(65,2,o),
(67,0,o),
(70,0,cs)
);
},
{
closed = 0;
nodes = (
(65,264,l)
);
},
{
closed = 1;
nodes = (
(275,376,l),
(365,376,o),
(495,395,o),
(495,533,cs),
(495,633,o),
(453,701,o),
(305,701,c),
(123,700,ls),
(121,700,o),
(118,699,o),
(117,696,cs),
(107,677,ls),
(105,673,o),
(107,671,o),
(111,671,cs),
(305,671,l),
(372,671,o),
(412,630,o),
(412,558,cs),
(412,502,ls),
(412,455,o),
(370,406,o),
(275,406,c),
(142,406,ls),
(139,406,o),
(137,405,o),
(137,401,cs),
(139,381,ls),
(139,377,o),
(141,376,o),
(144,376,cs)
);
}
);
width = 575;
}
);
unicode = 66;
},
{
glyphname = C;
lastChange = "2025-06-26 18:28:40 +0000";
layers = (
{
layerId = m01;
shapes = (
{
closed = 1;
nodes = (
(614,223,ls),
(611,223,o),
(609,221,o),
(609,218,cs),
(597,68,o),
(521,14,o),
(380,14,cs),
(243,14,o),
(113,91,o),
(113,304,cs),
(113,386,ls),
(113,598,o),
(243,685,o),
(380,685,cs),
(507,685,o),
(607,621,o),
(609,471,cs),
(609,468,o),
(611,466,o),
(614,466,cs),
(684,466,ls),
(687,466,o),
(689,468,o),
(689,471,cs),
(676,648,o),
(518,715,o),
(380,715,cs),
(230,715,o),
(30,623,o),
(30,368,cs),
(30,332,ls),
(30,75,o),
(230,-16,o),
(380,-16,cs),
(515,-16,o),
(673,48,o),
(686,218,cs),
(686,221,o),
(684,223,o),
(681,223,cs)
);
}
);
width = 719;
}
);
unicode = 67;
},
{
glyphname = D;
lastChange = "2025-06-26 18:28:40 +0000";
layers = (
{
layerId = m01;
shapes = (
{
closed = 1;
nodes = (
(142,0,ls),
(145,0,o),
(147,2,o),
(147,5,cs),
(147,695,ls),
(147,698,o),
(145,700,o),
(142,700,cs),
(70,700,ls),
(67,700,o),
(65,698,o),
(65,695,cs),
(65,5,ls),
(65,2,o),
(67,0,o),
(70,0,cs)
);
},
{
closed = 0;
nodes = (
(65,264,l)
);
},
{
closed = 1;
nodes = (
(260,25,ls),
(260,28,o),
(258,30,o),
(255,30,cs),
(142,30,ls),
(139,30,o),
(137,29,o),
(137,25,cs),
(139,5,ls),
(139,1,o),
(141,0,o),
(144,0,cs),
(255,0,ls),
(258,0,o),
(260,2,o),
(260,5,cs)
);
},
{
closed = 1;
nodes = (
(260,696,ls),
(260,699,o),
(258,701,o),
(255,701,cs),
(123,700,ls),
(121,700,o),
(118,699,o),
(117,696,cs),
(107,677,ls),
(105,673,o),
(107,671,o),
(111,671,cs),
(255,671,ls),
(258,671,o),
(260,673,o),
(260,676,cs)
);
},
{
closed = 0;
nodes = (
(65,264,l)
);
},
{
closed = 1;
nodes = (
(380,668,o),
(525,596,o),
(525,388,cs),
(525,306,ls),
(525,97,o),
(380,33,o),
(265,30,cs),
(262,30,o),
(260,28,o),
(260,25,cs),
(260,5,ls),
(260,2,o),
(262,0,o),
(265,0,cs),
(395,3,o),
(608,81,o),
(608,334,cs),
(608,370,ls),
(608,621,o),
(395,698,o),
(265,701,cs),
(262,701,o),
(260,699,o),
(260,696,cs),
(260,676,ls),
(260,673,o),
(262,671,o),
(265,671,cs)
);
}
);
width = 638;
}
);
unicode = 68;
},
{
glyphname = E;
lastChange = "2025-06-26 18:28:40 +0000";
layers = (
{
layerId = m01;
shapes = (
{
closed = 1;
nodes = (
(142,0,ls),
(145,0,o),
(147,2,o),
(147,5,cs),
(147,669,l),
(500,669,ls),
(503,669,o),
(505,671,o),
(505,674,cs),
(505,695,ls),
(505,698,o),
(503,700,o),
(500,700,cs),
(147,700,l),
(70,700,ls),
(67,700,o),
(65,698,o),
(65,695,cs),
(65,5,ls),
(65,2,o),
(67,0,o),
(70,0,cs)
);
},
{
closed = 1;
nodes = (
(500,0,ls),
(503,0,o),
(505,2,o),
(505,5,cs),
(505,26,ls),
(505,29,o),
(503,31,o),
(500,31,cs),
(152,31,ls),
(149,31,o),
(147,29,o),
(147,26,cs),
(147,5,ls),
(147,2,o),
(149,0,o),
(152,0,cs)
);
},
{
closed = 1;
nodes = (
(388,370,ls),
(391,370,o),
(393,372,o),
(393,375,cs),
(393,396,ls),
(393,399,o),
(391,401,o),
(388,401,cs),
(152,401,ls),
(149,401,o),
(147,399,o),
(147,396,cs),
(147,375,ls),
(147,372,o),
(149,370,o),
(152,370,cs)
);
}
);
width = 535;
}
);
unicode = 69;
},
{
glyphname = F;
lastChange = "2025-06-26 18:28:40 +0000";
layers = (
{
layerId = m01;
shapes = (
{
closed = 1;
nodes = (
(142,0,ls),
(145,0,o),
(147,2,o),
(147,5,cs),
(147,669,l),
(500,669,ls),
(503,669,o),
(505,671,o),
(505,674,cs),
(505,695,ls),
(505,698,o),
(503,700,o),
(500,700,cs),
(147,700,l),
(147,700,l),
(70,700,ls),
(67,700,o),
(65,698,o),
(65,695,cs),
(65,5,ls),
(65,2,o),
(67,0,o),
(70,0,cs)
);
},
{
closed = 1;
nodes = (
(418,300,ls),
(421,300,o),
(423,302,o),
(423,305,cs),
(423,326,ls),
(423,329,o),
(421,331,o),
(418,331,cs),
(152,331,ls),
(149,331,o),
(147,329,o),
(147,326,cs),
(147,305,ls),
(147,302,o),
(149,300,o),
(152,300,cs)
);
}
);
width = 535;
}
);
unicode = 70;
},
{
glyphname = G;
lastChange = "2025-06-26 18:28:40 +0000";
layers = (
{
layerId = m01;
shapes = (
{
closed = 0;
nodes = (
(60,264,l)
);
},
{
closed = 1;
nodes = (
(681,291,ls),
(684,291,o),
(686,293,o),
(686,296,cs),
(686,317,ls),
(686,320,o),
(684,322,o),
(681,322,cs),
(496,322,ls),
(493,322,o),
(491,320,o),
(491,317,cs),
(491,296,ls),
(491,293,o),
(493,291,o),
(496,291,cs)
);
},
{
closed = 1;
nodes = (
(614,291,ls),
(611,291,o),
(609,289,o),
(609,286,cs),
(608,89,o),
(522,14,o),
(380,14,cs),
(243,14,o),
(113,91,o),
(113,304,cs),
(113,386,ls),
(113,598,o),
(243,685,o),
(380,685,cs),
(507,685,o),
(607,621,o),
(609,471,cs),
(609,468,o),
(611,466,o),
(614,466,cs),
(684,466,ls),
(687,466,o),
(689,468,o),
(689,471,cs),
(676,648,o),
(518,715,o),
(380,715,cs),
(230,715,o),
(30,623,o),
(30,368,cs),
(30,332,ls),
(30,75,o),
(230,-16,o),
(380,-16,cs),
(515,-16,o),
(683,68,o),
(686,286,cs),
(686,289,o),
(684,291,o),
(681,291,cs)
);
},
{
closed = 1;
nodes = (
(609,291,l),
(686,291,l),
(686,291,l),
(609,291,l)
);
},
{
closed = 1;
nodes = (
(655,5,ls),
(655,2,o),
(657,0,o),
(660,0,cs),
(681,0,ls),
(684,0,o),
(686,2,o),
(686,5,cs),
(686,286,ls),
(686,289,o),
(684,291,o),
(681,291,cs),
(660,291,ls),
(657,291,o),
(655,289,o),
(655,286,cs)
);
}
);
width = 734;
}
);
unicode = 71;
},
{
glyphname = H;
lastChange = "2025-06-26 18:28:40 +0000";
layers = (
{
layerId = m01;
shapes = (
{
closed = 1;
nodes = (
(142,0,ls),
(145,0,o),
(147,2,o),
(147,5,cs),
(147,370,l),
(563,370,l),
(563,5,ls),
(563,2,o),
(565,0,o),
(568,0,cs),
(640,0,ls),
(643,0,o),
(645,2,o),
(645,5,cs),
(645,695,ls),
(645,698,o),
(643,700,o),
(640,700,cs),
(568,700,ls),
(565,700,o),
(563,698,o),
(563,695,cs),
(563,401,l),
(147,401,l),
(147,695,ls),
(147,698,o),
(145,700,o),
(142,700,cs),
(70,700,ls),
(67,700,o),
(65,698,o),
(65,695,cs),
(65,5,ls),
(65,2,o),
(67,0,o),
(70,0,cs)
);
}
);
width = 710;
}
);
unicode = 72;
},
{
glyphname = I;
lastChange = "2025-06-26 18:28:40 +0000";
layers = (
{
layerId = m01;
shapes = (
{
closed = 1;
nodes = (
(70,700,ls),
(67,700,o),
(65,698,o),
(65,695,cs),
(65,5,ls),
(65,2,o),
(67,0,o),
(70,0,cs),
(142,0,ls),
(145,0,o),
(147,2,o),
(147,5,cs),
(147,695,ls),
(147,698,o),
(145,700,o),
(142,700,cs)
);
}
);
width = 212;
}
);
unicode = 73;
},
{
glyphname = J;
lastChange = "2025-06-26 18:28:40 +0000";
layers = (
{
layerId = m01;
shapes = (
{
closed = 1;
nodes = (
(384,198,ls),
(387,198,o),
(389,200,o),
(389,203,cs),
(389,695,ls),
(389,698,o),
(387,700,o),
(384,700,cs),
(312,700,ls),
(309,700,o),
(307,698,o),
(307,695,cs),
(307,203,ls),
(307,200,o),
(309,198,o),
(312,198,cs)
);
},
{
closed = 1;
nodes = (
(307,182,ls),
(307,80,o),
(296,12,o),
(199,12,cs),
(131,12,o),
(99,57,o),
(98,130,cs),
(98,133,o),
(96,135,o),
(93,135,cs),
(25,135,ls),
(22,135,o),
(20,133,o),
(20,130,cs),
(23,28,o),
(113,-16,o),
(199,-16,cs),
(309,-16,o),
(389,36,o),
(389,181,cs),
(389,193,ls),
(389,196,o),
(387,198,o),
(384,198,cs),
(312,198,ls),
(309,198,o),
(307,196,o),
(307,193,cs)
);
}
);
width = 454;
}
);
unicode = 74;
},
{
glyphname = K;
lastChange = "2025-06-26 18:28:40 +0000";
layers = (
{
layerId = m01;
shapes = (
{
closed = 1;
nodes = (
(112,222,ls),
(114,222,o),
(117,223,o),
(118,225,cs),
(534,694,ls),
(537,698,o),
(535,700,o),
(531,700,cs),
(500,700,ls),
(498,700,o),
(495,699,o),
(494,697,cs),
(78,228,ls),
(75,224,o),
(77,222,o),
(81,222,cs)
);
},
{
closed = 1;
nodes = (
(70,700,ls),
(67,700,o),
(65,698,o),
(65,695,cs),
(65,5,ls),
(65,2,o),
(67,0,o),
(70,0,cs),
(142,0,ls),
(145,0,o),
(147,2,o),
(147,5,cs),
(147,695,ls),
(147,698,o),
(145,700,o),
(142,700,cs)
);
},
{
closed = 1;
nodes = (
(226,377,ls),
(224,374,o),
(225,372,o),
(226,370,cs),
(483,3,ls),
(484,1,o),
(487,0,o),
(489,0,cs),
(570,0,ls),
(574,0,o),
(575,3,o),
(573,6,cs),
(281,430,ls),
(279,433,o),
(276,434,o),
(274,431,cs)
);
}
);
width = 577;
}
);
unicode = 75;
},
{
glyphname = L;
lastChange = "2025-06-26 18:28:40 +0000";
layers = (
{
layerId = m01;
shapes = (
{
closed = 1;
nodes = (
(142,0,ls),
(145,0,o),
(147,2,o),
(147,5,cs),
(147,695,ls),
(147,698,o),
(145,700,o),
(142,700,cs),
(70,700,ls),
(67,700,o),
(65,698,o),
(65,695,cs),
(65,5,ls),
(65,2,o),
(67,0,o),
(70,0,cs)
);
},
{
closed = 1;
nodes = (
(500,0,ls),
(503,0,o),
(505,2,o),
(505,5,cs),
(505,26,ls),
(505,29,o),
(503,31,o),
(500,31,cs),
(152,31,ls),
(149,31,o),
(147,29,o),
(147,26,cs),
(147,5,ls),
(147,2,o),
(149,0,o),
(152,0,cs)
);
}
);
width = 535;
}
);
unicode = 76;
},
{
glyphname = M;
lastChange = "2025-06-26 18:28:40 +0000";
layers = (
{
layerId = m01;
shapes = (
{
closed = 1;
nodes = (
(792,0,ls),
(795,0,o),
(797,2,o),
(797,5,cs),
(797,695,ls),
(797,698,o),
(795,700,o),
(792,700,cs),
(720,700,ls),
(717,700,o),
(715,698,o),
(715,695,cs),
(715,5,ls),
(715,2,o),
(717,0,o),
(720,0,cs)
);
},
{
closed = 1;
nodes = (
(430,0,ls),
(432,0,o),
(435,2,o),
(436,4,cs),
(752,694,ls),
(753,697,o),
(752,700,o),
(749,700,cs),
(719,700,ls),
(717,700,o),
(714,698,o),
(713,696,cs),
(449,115,l),
(103,697,ls),
(102,699,o),
(99,700,o),
(97,700,cs),
(70,700,ls),
(67,700,o),
(65,698,o),
(65,695,cs),
(65,6,ls),
(65,3,o),
(67,1,o),
(70,1,cs),
(96,1,ls),
(99,1,o),
(101,3,o),
(101,6,cs),
(101,516,l),
(407,4,ls),
(408,2,o),
(411,1,o),
(413,1,cs)
);
}
);
width = 862;
}
);
unicode = 77;
},
{
glyphname = N;
lastChange = "2025-06-26 18:28:40 +0000";
layers = (
{
layerId = m01;
shapes = (
{
closed = 1;
nodes = (
(589,0,ls),
(592,0,o),
(594,2,o),
(594,5,cs),
(594,695,ls),
(594,698,o),
(592,700,o),
(589,700,cs),
(563,700,ls),
(560,700,o),
(558,698,o),
(558,695,cs),
(558,5,ls),
(558,2,o),
(560,0,o),
(563,0,cs)
);
},
{
closed = 1;
nodes = (
(559,129,ls),
(559,131,o),
(558,133,o),
(557,135,cs),
(103,697,ls),
(102,699,o),
(99,700,o),
(97,700,cs),
(70,700,ls),
(67,700,o),
(65,698,o),
(65,695,cs),
(65,6,ls),
(65,3,o),
(67,1,o),
(70,1,cs),
(96,1,ls),
(99,1,o),
(101,3,o),
(101,6,cs),
(101,559,l),
(552,7,ls),
(555,4,o),
(558,6,o),
(558,10,cs)
);
}
);
width = 659;
}
);
unicode = 78;
},
{
glyphname = O;
lastChange = "2025-06-26 18:28:40 +0000";
layers = (
{
layerId = m01;
shapes = (
{
closed = 1;
nodes = (
(530,-16,o),
(730,75,o),
(730,332,cs),
(730,368,ls),
(730,623,o),
(530,715,o),
(380,715,cs),
(230,715,o),
(30,623,o),
(30,368,cs),
(30,332,ls),
(30,75,o),
(230,-16,o),
(380,-16,cs)
);
},
{
closed = 1;
nodes = (
(243,14,o),
(113,91,o),
(113,304,cs),
(113,386,ls),
(113,598,o),
(243,685,o),
(380,685,cs),
(517,685,o),
(646,598,o),
(646,386,cs),
(646,304,ls),
(646,97,o),
(535,14,o),
(380,14,cs)
);
}
);
width = 760;
}
);
unicode = 79;
},
{
glyphname = P;
lastChange = "2025-06-26 18:28:40 +0000";
layers = (
{
layerId = m01;
shapes = (
{
closed = 1;
nodes = (
(70,700,ls),
(67,700,o),
(65,698,o),
(65,695,cs),
(65,5,ls),
(65,2,o),
(67,0,o),
(70,0,cs),
(142,0,ls),
(145,0,o),
(147,2,o),
(147,5,cs),
(147,695,ls),
(147,698,o),
(145,700,o),
(142,700,cs)
);
},
{
closed = 1;
nodes = (
(285,675,ls),
(285,672,o),
(287,670,o),
(290,670,cs),
(403,668,o),
(422,598,o),
(422,483,cs),
(422,456,ls),
(422,336,o),
(403,247,o),
(290,244,cs),
(287,244,o),
(285,242,o),
(285,239,cs),
(285,219,ls),
(285,216,o),
(287,214,o),
(290,214,cs),
(417,216,o),
(505,301,o),
(505,464,cs),
(505,624,o),
(417,698,o),
(290,700,cs),
(287,700,o),
(285,698,o),
(285,695,cs)
);
},
{
closed = 1;
nodes = (
(96,219,ls),
(96,216,o),
(98,214,o),
(101,214,cs),
(280,214,ls),
(283,214,o),
(285,216,o),
(285,219,cs),
(285,239,ls),
(285,242,o),
(283,244,o),
(280,244,cs),
(101,244,ls),
(98,244,o),
(96,242,o),
(96,239,cs)
);
},
{
closed = 1;
nodes = (
(96,675,ls),
(96,672,o),
(98,670,o),
(101,670,cs),
(280,670,ls),
(283,670,o),
(285,672,o),
(285,675,cs),
(285,695,ls),
(285,698,o),
(283,700,o),
(280,700,cs),
(101,700,ls),
(98,700,o),
(96,698,o),
(96,695,cs)
);
}
);
width = 535;
}
);
unicode = 80;
},
{
glyphname = Q;
lastChange = "2025-06-26 18:28:40 +0000";
layers = (
{
layerId = m01;
shapes = (
{
closed = 0;
nodes = (
(80,264,l)
);
},
{
closed = 1;
nodes = (
(334,-1,ls),
(331,-1,o),
(329,-3,o),
(329,-6,cs),
(329,-17,ls),
(329,-163,o),
(432,-228,o),
(525,-228,cs),
(598,-228,o),
(674,-190,o),
(677,-104,cs),
(677,-101,o),
(675,-99,o),
(672,-99,cs),
(596,-99,ls),
(593,-99,o),
(591,-101,o),
(591,-104,cs),
(590,-164,o),
(564,-203,o),
(507,-203,cs),
(425,-203,o),
(432,-128,o),
(432,-17,cs),
(432,-6,ls),
(432,-3,o),
(430,-1,o),
(427,-1,cs)
);
},
{
closed = 1;
nodes = (
(530,-16,o),
(730,75,o),
(730,332,cs),
(730,368,ls),
(730,623,o),
(530,715,o),
(380,715,cs),
(230,715,o),
(30,623,o),
(30,368,cs),
(30,332,ls),
(30,75,o),
(230,-16,o),
(380,-16,cs)
);
},
{
closed = 1;
nodes = (
(243,14,o),
(113,91,o),
(113,304,cs),
(113,386,ls),
(113,598,o),
(243,685,o),
(380,685,cs),
(517,685,o),
(646,598,o),
(646,386,cs),
(646,304,ls),
(646,97,o),
(535,14,o),
(380,14,cs)
);
}
);
width = 760;
}
);
unicode = 81;
},
{
glyphname = R;
lastChange = "2025-06-26 18:28:40 +0000";
layers = (
{
layerId = m01;
shapes = (
{
closed = 1;
nodes = (
(70,700,ls),
(67,700,o),
(65,698,o),
(65,695,cs),
(65,5,ls),
(65,2,o),
(67,0,o),
(70,0,cs),
(142,0,ls),
(145,0,o),
(147,2,o),
(147,5,cs),
(147,695,ls),
(147,698,o),
(145,700,o),
(142,700,cs)
);
},
{
closed = 1;
nodes = (
(96,269,ls),
(96,266,o),
(98,264,o),
(101,264,cs),
(280,264,ls),
(283,264,o),
(285,266,o),
(285,269,cs),
(285,289,ls),
(285,292,o),
(283,294,o),
(280,294,cs),
(101,294,ls),
(98,294,o),
(96,292,o),
(96,289,cs)
);
},
{
closed = 1;
nodes = (
(96,675,ls),
(96,672,o),
(98,670,o),
(101,670,cs),
(280,670,ls),
(283,670,o),
(285,672,o),
(285,675,cs),
(285,695,ls),
(285,698,o),
(283,700,o),
(280,700,cs),
(101,700,ls),
(98,700,o),
(96,698,o),
(96,695,cs)
);
},
{
closed = 1;
nodes = (
(429,3,ls),
(430,1,o),
(433,0,o),
(435,0,cs),
(516,0,ls),
(520,0,o),
(521,2,o),
(519,6,cs),
(355,279,ls),
(354,281,o),
(351,282,o),
(349,282,cs),
(274,279,ls),
(270,279,o),
(268,277,o),
(270,273,cs)
);
},
{
closed = 1;
nodes = (
(285,675,ls),
(285,672,o),
(287,670,o),
(290,670,cs),
(423,669,o),
(452,614,o),
(451,507,cs),
(451,483,ls),
(452,370,o),
(423,296,o),
(290,294,cs),
(287,294,o),
(285,292,o),
(285,289,cs),
(285,269,ls),
(285,266,o),
(287,264,o),
(290,264,cs),
(437,266,o),
(535,336,o),
(535,489,cs),
(535,639,o),
(437,699,o),
(290,700,cs),
(287,700,o),
(285,698,o),
(285,695,cs)
);
}
);
width = 575;
}
);
unicode = 82;
},
{
glyphname = S;
lastChange = "2025-06-26 18:28:40 +0000";
layers = (
{
layerId = m01;
shapes = (
{
closed = 1;
nodes = (
(478,545,ls),
(481,545,o),
(483,547,o),
(483,550,cs),
(479,692,o),
(326,716,o),
(264,716,cs),
(179,716,o),
(47,658,o),
(47,521,cs),
(47,413,o),
(181,363,o),
(225,340,cs),
(269,317,ls),
(307,297,o),
(458,224,o),
(458,133,cs),
(458,66,o),
(390,17,o),
(276,17,cs),
(178,17,o),
(106,76,o),
(104,182,cs),
(104,185,o),
(102,187,o),
(99,187,cs),
(35,187,ls),
(32,187,o),
(30,185,o),
(30,182,cs),
(34,40,o),
(183,-16,o),
(282,-16,cs),
(399,-16,o),
(514,46,o),
(514,162,cs),
(514,285,o),
(369,352,o),
(305,384,cs),
(265,404,ls),
(225,424,o),
(102,481,o),
(102,559,cs),
(102,627,o),
(175,684,o),
(264,684,cs),
(372,684,o),
(406,624,o),
(407,550,cs),
(407,547,o),
(409,545,o),
(412,545,cs)
);
}
);
width = 538;
}
);
unicode = 83;
},
{
glyphname = T;
lastChange = "2025-06-26 18:28:40 +0000";
layers = (
{
layerId = m01;
shapes = (
{
closed = 1;
nodes = (
(30,674,ls),
(30,671,o),
(32,669,o),
(35,669,cs),
(565,669,ls),
(568,669,o),
(570,671,o),
(570,674,cs),
(570,695,ls),
(570,698,o),
(568,700,o),
(565,700,cs),
(35,700,ls),
(32,700,o),
(30,698,o),
(30,695,cs)
);
},
{
closed = 1;
nodes = (
(260,5,ls),
(260,2,o),
(262,0,o),
(265,0,cs),
(337,0,ls),
(340,0,o),
(342,2,o),
(342,5,cs),
(342,695,ls),
(342,698,o),
(340,700,o),
(337,700,cs),
(265,700,ls),
(262,700,o),
(260,698,o),
(260,695,cs)
);
}
);
width = 600;
}
);
unicode = 84;
},
{
glyphname = U;
lastChange = "2025-06-26 18:28:40 +0000";
layers = (
{
layerId = m01;
shapes = (
{
closed = 0;
nodes = (
(60,264,l)
);
},
{
closed = 1;
nodes = (
(593,700,ls),
(590,700,o),
(588,698,o),
(588,695,cs),
(588,274,ls),
(588,68,o),
(465,20,o),
(340,20,cs),
(243,20,o),
(143,71,o),
(143,274,cs),
(143,695,ls),
(143,698,o),
(141,700,o),
(138,700,cs),
(65,700,ls),
(62,700,o),
(60,698,o),
(60,695,cs),
(60,292,ls),
(60,45,o),
(237,-16,o),
(336,-16,cs),
(457,-16,o),
(624,25,o),
(624,272,c),
(624,695,ls),
(624,698,o),
(622,700,o),
(619,700,cs)
);
}
);
width = 684;
}
);
unicode = 85;
},
{
glyphname = V;
lastChange = "2025-06-26 18:28:40 +0000";
layers = (
{
layerId = m01;
shapes = (
{
closed = 1;
nodes = (
(384,0,ls),
(387,0,o),
(389,2,o),
(388,6,cs),
(124,696,ls),
(123,698,o),
(120,700,o),
(118,700,cs),
(46,700,ls),
(43,700,o),
(41,698,o),
(42,694,cs),
(306,4,ls),
(307,2,o),
(310,0,o),
(312,0,cs)
);
},
{
closed = 1;
nodes = (
(350,6,ls),
(349,2,o),
(351,0,o),
(354,0,cs),
(386,0,ls),
(388,0,o),
(391,2,o),
(392,4,cs),
(658,694,ls),
(659,698,o),
(657,700,o),
(654,700,cs),
(622,700,ls),
(620,700,o),
(617,698,o),
(616,696,cs)
);
}
);
width = 700;
}
);
unicode = 86;
},
{
glyphname = W;
lastChange = "2025-06-26 18:28:40 +0000";
layers = (
{
layerId = m01;
shapes = (
{
closed = 1;
nodes = (
(334,0,ls),
(337,0,o),
(339,2,o),
(338,6,cs),
(123,696,ls),
(122,698,o),
(121,700,o),
(118,700,cs),
(46,700,ls),
(43,700,o),
(41,698,o),
(42,694,cs),
(257,4,ls),
(258,2,o),
(259,0,o),
(262,0,cs)
);
},
{
closed = 1;
nodes = (
(300,6,ls),
(299,2,o),
(301,0,o),
(304,0,cs),
(336,0,ls),
(339,0,o),
(340,2,o),
(341,4,cs),
(558,694,ls),
(559,698,o),
(557,700,o),
(554,700,cs),
(522,700,ls),
(519,700,o),
(518,698,o),
(517,696,cs)
);
},
{
closed = 1;
nodes = (
(772,0,ls),
(775,0,o),
(777,2,o),
(776,6,cs),
(562,694,ls),
(561,697,o),
(557,698,o),
(555,695,cs),
(501,639,ls),
(499,637,o),
(498,634,o),
(499,632,cs),
(695,4,ls),
(696,2,o),
(697,0,o),
(700,0,cs)
);
},
{
closed = 1;
nodes = (
(738,6,ls),
(737,2,o),
(739,0,o),
(742,0,cs),
(774,0,ls),
(777,0,o),
(778,2,o),
(779,4,cs),
(996,694,ls),
(997,698,o),
(995,700,o),
(992,700,cs),
(960,700,ls),
(957,700,o),
(956,698,o),
(955,696,cs)
);
}
);
width = 1038;
}
);
unicode = 87;
},
{
glyphname = X;
lastChange = "2025-06-26 18:28:40 +0000";
layers = (
{
layerId = m01;
shapes = (
{
closed = 1;
nodes = (
(677,0,ls),
(681,0,o),
(683,3,o),
(681,6,cs),
(179,697,ls),
(178,699,o),
(175,700,o),
(173,700,cs),
(83,700,ls),
(79,700,o),
(77,697,o),
(79,694,cs),
(581,3,ls),
(582,1,o),
(585,0,o),
(587,0,cs)
);
},
{
closed = 1;
nodes = (
(386,357,ls),
(388,354,o),
(391,355,o),
(393,357,cs),
(660,694,ls),
(662,697,o),
(661,700,o),
(657,700,cs),
(617,700,ls),
(615,700,o),
(612,699,o),
(611,697,cs),
(366,390,ls),
(364,387,o),
(364,386,o),
(366,383,cs)
);
},
{
closed = 1;
nodes = (
(356,382,ls),
(354,385,o),
(351,384,o),
(349,382,cs),
(50,6,ls),
(48,3,o),
(49,0,o),
(53,0,cs),
(97,0,ls),
(99,0,o),
(102,1,o),
(103,3,cs),
(376,349,ls),
(378,352,o),
(378,353,o),
(376,356,cs)
);
}
);
width = 730;
}
);
unicode = 88;
},
{
glyphname = Y;
lastChange = "2025-06-26 18:28:40 +0000";
layers = (
{
layerId = m01;
shapes = (
{
closed = 1;
nodes = (
(343,264,ls),
(347,264,o),
(349,266,o),
(347,270,cs),
(114,696,ls),
(113,698,o),
(110,700,o),
(108,700,cs),
(37,700,ls),
(33,700,o),
(31,698,o),
(33,694,cs),
(266,268,ls),
(267,266,o),
(270,264,o),
(272,264,cs)
);
},
{
closed = 1;
nodes = (
(345,0,ls),
(348,0,o),
(350,2,o),
(350,5,cs),
(350,270,ls),
(350,273,o),
(348,275,o),
(345,275,cs),
(273,275,ls),
(270,275,o),
(268,273,o),
(268,270,cs),
(268,5,ls),
(268,2,o),
(270,0,o),
(273,0,cs)
);
},
{
closed = 1;
nodes = (
(346,264,ls),
(348,264,o),
(351,266,o),
(352,268,cs),
(587,694,ls),
(589,698,o),
(587,700,o),
(583,700,cs),
(548,700,ls),
(546,700,o),
(543,698,o),
(542,696,cs),
(311,270,ls),
(309,266,o),
(311,264,o),
(315,264,cs)
);
}
);
width = 620;
}
);
unicode = 89;
},
{
glyphname = Z;
lastChange = "2025-06-26 18:28:40 +0000";
layers = (
{
layerId = m01;
shapes = (
{
closed = 1;
nodes = (
(50,5,ls),
(50,1,o),
(52,0,o),
(55,0,cs),
(595,0,ls),
(598,0,o),
(600,2,o),
(600,5,cs),
(600,31,ls),
(600,34,o),
(598,36,o),
(595,36,cs),
(145,36,l),
(568,661,ls),
(569,663,o),
(570,665,o),
(570,667,cs),
(570,695,ls),
(570,698,o),
(568,700,o),
(565,700,cs),
(56,700,ls),
(53,700,o),
(51,698,o),
(51,695,cs),
(51,669,ls),
(51,666,o),
(53,664,o),
(56,664,cs),
(476,664,l),
(53,39,ls),
(52,37,o),
(51,36,o),
(51,33,cs)
);
}
);
width = 650;
}
);
unicode = 90;
},
{
glyphname = a;
lastChange = "2025-06-26 18:28:40 +0000";
layers = (
{
layerId = m01;
shapes = (
{
closed = 1;
nodes = (
(445,0,ls),
(448,0,o),
(450,2,o),
(450,5,cs),
(450,197,ls),
(450,200,o),
(448,202,o),
(445,202,cs),
(373,202,ls),
(370,202,o),
(368,200,o),
(368,197,cs),
(368,5,ls),
(368,2,o),
(370,0,o),
(373,0,cs)
);
},
{
closed = 1;
nodes = (
(417,279,ls),
(420,279,o),
(422,281,o),
(422,284,cs),
(422,304,ls),
(422,307,o),
(420,309,o),
(417,309,cs),
(251,309,l),
(141,309,o),
(40,257,o),
(40,152,cs),
(40,-5,o),
(191,-16,o),
(261,-16,cs),
(342,-16,o),
(368,55,o),
(368,70,cs),
(368,138,l),
(368,72,o),
(327,14,o),
(262,14,cs),
(261,14,ls),
(204,14,o),
(123,21,o),
(123,134,cs),
(123,160,ls),
(123,222,o),
(154,279,o),
(251,279,c)
);
},
{
closed = 1;
nodes = (
(445,191,ls),
(448,191,o),
(450,193,o),
(450,196,cs),
(450,268,ls),
(450,463,o),
(371,515,o),
(261,515,cs),
(175,515,o),
(85,471,o),
(82,369,cs),
(82,366,o),
(84,364,o),
(87,364,cs),
(155,364,ls),
(158,364,o),
(160,366,o),
(160,369,cs),
(161,442,o),
(193,487,o),
(261,487,cs),
(358,487,o),
(368,419,o),
(368,267,cs),
(368,196,ls),
(368,193,o),
(370,191,o),
(373,191,cs)
);
}
);
width = 515;
}
);
unicode = 97;
},
{
glyphname = b;
lastChange = "2025-06-26 18:28:40 +0000";
layers = (
{
layerId = m01;
shapes = (
{
closed = 1;
nodes = (
(70,760,ls),
(67,760,o),
(65,758,o),
(65,755,cs),
(65,5,ls),
(65,2,o),
(67,0,o),
(70,0,cs),
(142,0,ls),
(145,0,o),
(147,2,o),
(147,5,cs),
(147,30,l),
(187,-2,o),
(236,-16,o),
(285,-16,cs),
(385,-16,o),
(505,66,o),
(505,250,cs),
(505,436,o),
(385,516,o),
(285,516,cs),
(172,516,o),
(147,435,o),
(147,450,cs),
(147,755,ls),
(147,758,o),
(145,760,o),
(142,760,cs)
);
},
{
closed = 1;
nodes = (
(372,488,o),
(422,395,o),
(422,263,cs),
(422,227,ls),
(422,105,o),
(372,12,o),
(285,12,cs),
(176,12,o),
(152,63,o),
(147,125,c),
(147,362,ls),
(147,428,o),
(209,488,o),
(285,488,cs)
);
},
{
closed = 1;
nodes = (
(285,14,l),
(285,12,l)
);
}
);
width = 545;
}
);
unicode = 98;
},
{
glyphname = c;
lastChange = "2025-06-26 18:28:40 +0000";
layers = (
{
layerId = m01;
shapes = (
{
closed = 1;
nodes = (
(424,155,ls),
(421,155,o),
(419,153,o),
(419,150,cs),
(417,68,o),
(373,12,o),
(280,12,cs),
(173,12,o),
(123,105,o),
(123,227,cs),
(123,263,ls),
(123,395,o),
(173,488,o),
(280,488,cs),
(376,488,o),
(420,427,o),
(422,333,cs),
(422,330,o),
(424,328,o),
(427,328,cs),
(496,328,ls),
(499,328,o),
(501,330,o),
(501,333,cs),
(498,460,o),
(391,516,o),
(280,516,cs),
(150,516,o),
(40,436,o),
(40,250,cs),
(40,66,o),
(150,-16,o),
(280,-16,cs),
(385,-16,o),
(494,36,o),
(497,150,cs),
(497,153,o),
(495,155,o),
(492,155,cs)
);
}
);
width = 541;
}
);
unicode = 99;
},
{
glyphname = d;
lastChange = "2025-06-26 18:28:40 +0000";
layers = (
{
layerId = m01;
shapes = (
{
closed = 1;
nodes = (
(398,430,ls),
(398,415,o),
(351,512,o),
(260,516,cs),
(160,516,o),
(40,436,o),
(40,250,cs),
(40,66,o),
(160,-16,o),
(260,-16,cs),
(309,-16,o),
(358,-2,o),
(398,30,c),
(398,5,ls),
(398,2,o),
(400,0,o),
(403,0,cs),
(475,0,ls),
(478,0,o),
(480,2,o),
(480,5,cs),
(480,755,ls),
(480,758,o),
(478,760,o),
(475,760,cs),
(403,760,ls),
(400,760,o),
(398,758,o),
(398,755,cs)
);
},
{
closed = 1;
nodes = (
(336,488,o),
(398,428,o),
(398,362,cs),
(398,125,l),
(393,63,o),
(369,12,o),
(260,12,cs),
(173,12,o),
(123,105,o),
(123,227,cs),
(123,263,ls),
(123,395,o),
(173,488,o),
(260,488,cs)
);
},
{
closed = 1;
nodes = (
(260,14,l),
(260,12,l)
);
}
);
width = 545;
}
);
unicode = 100;
},
{
glyphname = e;
lastChange = "2025-06-26 18:28:40 +0000";
layers = (
{
layerId = m01;
shapes = (
{
closed = 1;
nodes = (
(429,238,ls),
(432,238,o),
(434,240,o),
(434,243,cs),
(434,265,ls),
(434,268,o),
(432,270,o),
(429,270,cs),
(105,270,ls),
(102,270,o),
(100,268,o),
(100,265,cs),
(100,243,ls),
(100,240,o),
(102,238,o),
(105,238,cs)
);
},
{
closed = 1;
nodes = (
(418,176,ls),
(415,176,o),
(413,174,o),
(413,171,cs),
(412,78,o),
(380,12,o),
(280,12,cs),
(173,12,o),
(123,105,o),
(123,227,cs),
(123,263,ls),
(123,395,o),
(173,488,o),
(270,488,cs),
(377,488,o),
(416,412,o),
(417,243,cs),
(417,240,o),
(419,238,o),
(422,238,cs),
(495,238,ls),
(498,238,o),
(500,240,o),
(500,243,cs),
(498,439,o),
(397,516,o),
(270,516,cs),
(150,516,o),
(40,436,o),
(40,250,cs),
(40,66,o),
(150,-16,o),
(280,-16,cs),
(392,-16,o),
(489,42,o),
(492,171,cs),
(492,174,o),
(490,176,o),
(487,176,cs)
);
}
);
width = 540;
}
);
unicode = 101;
},
{
glyphname = f;
lastChange = "2025-06-26 18:28:40 +0000";
layers = (
{
layerId = m01;
shapes = (
{
closed = 1;
nodes = (
(353,748,o),
(380,704,o),
(382,631,cs),
(382,627,o),
(384,625,o),
(387,625,cs),
(455,625,ls),
(458,625,o),
(460,627,o),
(460,630,cs),
(457,732,o),
(374,776,o),
(294,776,cs),
(293,776,ls),
(221,776,o),
(118,758,o),
(118,501,cs),
(118,5,ls),
(118,2,o),
(120,0,o),
(123,0,cs),
(195,0,ls),
(198,0,o),
(200,2,o),
(200,5,cs),
(200,500,ls),
(200,714,o),
(237,748,o),
(293,748,cs),
(294,748,ls)
);
},
{
closed = 1;
nodes = (
(40,475,ls),
(40,472,o),
(42,470,o),
(45,470,cs),
(273,470,ls),
(276,470,o),
(278,472,o),
(278,475,cs),
(278,495,ls),
(278,498,o),
(276,500,o),
(273,500,cs),
(45,500,ls),
(42,500,o),
(40,498,o),
(40,495,cs)
);
}
);
width = 318;
}
);
unicode = 102;
},
{
glyphname = g;
lastChange = "2025-06-26 18:28:40 +0000";
layers = (
{
layerId = m01;
shapes = (
{
closed = 1;
nodes = (
(390,224,o),
(370,147,o),
(263,147,cs),
(156,147,o),
(136,224,o),
(136,306,cs),
(136,326,ls),
(136,408,o),
(156,485,o),
(263,485,cs),
(370,485,o),
(390,408,o),
(390,326,cs),
(390,306,ls)
);
},
{
closed = 1;
nodes = (
(53,189,o),
(143,117,o),
(263,117,cs),
(383,117,o),
(473,189,o),
(473,314,cs),
(473,318,ls),
(473,443,o),
(383,515,o),
(263,515,cs),
(143,515,o),
(53,443,o),
(53,318,cs),
(53,314,ls)
);
},
{
closed = 1;
nodes = (
(39,111,o),
(41,38,o),
(135,0,c),
(53,-45,o),
(40,-74,o),
(40,-100,cs),
(40,-176,o),
(108,-216,o),
(263,-228,cs),
(292,-230,o),
(321,-228,o),
(350,-228,cs),
(438,-228,o),
(536,-181,o),
(536,-85,cs),
(536,-15,o),
(500,51,o),
(369,65,cs),
(318,70,o),
(266,65,o),
(215,65,cs),
(136,65,o),
(64,57,o),
(141,164,cs),
(143,167,o),
(142,171,o),
(139,172,cs),
(114,185,ls),
(111,187,o),
(109,186,o),
(107,184,cs)
);
},
{
closed = 1;
nodes = (
(229,-197,o),
(128,-203,o),
(128,-109,cs),
(128,-64,o),
(164,-19,o),
(204,-19,cs),
(235,-19,l),
(351,-18,ls),
(419,-17,o),
(496,-28,o),
(496,-85,cs),
(496,-179,o),
(411,-197,o),
(350,-197,cs),
(283,-197,ls)
);
},
{
closed = 1;
nodes = (
(360,465,ls),
(361,463,o),
(363,460,o),
(365,460,cs),
(512,432,ls),
(515,431,o),
(517,434,o),
(517,437,cs),
(517,495,ls),
(517,498,o),
(515,500,o),
(512,500,cs),
(356,500,ls),
(353,500,o),
(351,498,o),
(352,494,cs)
);
}
);
width = 546;
}
);
unicode = 103;
},
{
glyphname = h;
lastChange = "2025-06-26 18:28:40 +0000";
layers = (
{
layerId = m01;
shapes = (
{
closed = 1;
nodes = (
(142,0,ls),
(145,0,o),
(147,2,o),
(147,5,cs),
(147,755,ls),
(147,758,o),
(145,760,o),
(142,760,cs),
(70,760,ls),
(67,760,o),
(65,758,o),
(65,755,cs),
(65,5,ls),
(65,2,o),
(67,0,o),
(70,0,cs)
);
},
{
closed = 1;
nodes = (
(490,0,ls),
(493,0,o),
(495,2,o),
(495,5,cs),
(495,352,ls),
(495,469,o),
(422,516,o),
(305,516,cs),
(209,516,o),
(147,446,o),
(147,430,cs),
(147,362,l),
(147,428,o),
(220,486,o),
(295,486,cs),
(352,486,o),
(413,458,o),
(413,352,cs),
(413,5,ls),
(413,2,o),
(415,0,o),
(418,0,cs)
);
}
);
width = 560;
}
);
unicode = 104;
},
{
glyphname = i;
lastChange = "2025-06-26 18:28:40 +0000";
layers = (
{
layerId = m01;
shapes = (
{
closed = 1;
nodes = (
(147,0,ls),
(150,0,o),
(152,2,o),
(152,5,cs),
(152,495,ls),
(152,498,o),
(150,500,o),
(147,500,cs),
(75,500,ls),
(72,500,o),
(70,498,o),
(70,495,cs),
(70,5,ls),
(70,2,o),
(72,0,o),
(75,0,cs)
);
},
{
closed = 1;
nodes = (
(141,568,o),
(158,585,o),
(158,615,cs),
(158,645,o),
(141,661,o),
(112,661,cs),
(82,661,o),
(65,645,o),
(65,615,cs),
(65,585,o),
(82,568,o),
(112,568,cs)
);
}
);
width = 223;
}
);
unicode = 105;
},
{
glyphname = j;
lastChange = "2025-06-26 18:28:40 +0000";
layers = (
{
layerId = m01;
shapes = (
{
closed = 1;
nodes = (
(147,36,ls),
(150,36,o),
(152,38,o),
(152,41,cs),
(152,495,ls),
(152,498,o),
(150,500,o),
(147,500,cs),
(75,500,ls),
(72,500,o),
(70,498,o),
(70,495,cs),
(70,41,ls),
(70,38,o),
(72,36,o),
(75,36,cs)
);
},
{
closed = 1;
nodes = (
(141,568,o),
(158,585,o),
(158,615,cs),
(158,645,o),
(141,661,o),
(112,661,cs),
(82,661,o),
(65,645,o),
(65,615,cs),
(65,585,o),
(82,568,o),
(112,568,cs)
);
},
{
closed = 1;
nodes = (
(70,20,ls),
(70,-112,o),
(79,-200,o),
(2,-200,cs),
(-64,-200,o),
(-66,-155,o),
(-66,-82,cs),
(-66,-79,o),
(-68,-77,o),
(-71,-77,cs),
(-139,-77,ls),
(-142,-77,o),
(-144,-79,o),
(-144,-82,cs),
(-142,-184,o),
(-91,-228,o),
(2,-228,cs),
(92,-228,o),
(152,-156,o),
(152,19,cs),
(152,31,ls),
(152,34,o),
(150,36,o),
(147,36,cs),
(75,36,ls),
(72,36,o),
(70,34,o),
(70,31,cs)
);
}
);
width = 223;
}
);
unicode = 106;
},
{
glyphname = k;
lastChange = "2025-06-26 18:28:40 +0000";
layers = (
{
layerId = m01;
shapes = (
{
closed = 1;
nodes = (
(112,202,ls),
(114,202,o),
(117,203,o),
(119,205,cs),
(417,495,ls),
(420,498,o),
(418,501,o),
(414,501,cs),
(384,501,ls),
(382,501,o),
(379,500,o),
(377,498,cs),
(79,208,ls),
(76,205,o),
(78,202,o),
(82,202,cs)
);
},
{
closed = 1;
nodes = (
(70,760,ls),
(67,760,o),
(65,758,o),
(65,755,cs),
(65,5,ls),
(65,2,o),
(67,0,o),
(70,0,cs),
(142,0,ls),
(145,0,o),
(147,2,o),
(147,5,cs),
(147,755,ls),
(147,758,o),
(145,760,o),
(142,760,cs)
);
},
{
closed = 1;
nodes = (
(187,291,ls),
(185,289,o),
(186,286,o),
(187,284,cs),
(373,3,ls),
(374,1,o),
(377,0,o),
(379,0,cs),
(450,0,ls),
(454,0,o),
(455,2,o),
(453,6,cs),
(239,333,ls),
(237,336,o),
(235,337,o),
(232,334,cs)
);
}
);
width = 467;
}
);
unicode = 107;
},
{
glyphname = l;
lastChange = "2025-06-26 18:28:40 +0000";
layers = (
{
layerId = m01;
shapes = (
{
closed = 1;
nodes = (
(142,0,ls),
(145,0,o),
(147,2,o),
(147,5,cs),
(147,755,ls),
(147,758,o),
(145,760,o),
(142,760,cs),
(70,760,ls),
(67,760,o),
(65,758,o),
(65,755,cs),
(65,5,ls),
(65,2,o),
(67,0,o),
(70,0,cs)
);
}
);
width = 212;
}
);
unicode = 108;
},
{
glyphname = m;
lastChange = "2025-06-26 18:28:40 +0000";
layers = (
{
background = {
shapes = (
{
closed = 1;
nodes = (
(809,0,l),
(809,352,ls),
(809,469,o),
(736,516,o),
(619,516,cs),
(523,516,o),
(461,446,o),
(461,430,cs),
(461,362,l),
(461,430,o),
(534,486,o),
(609,486,cs),
(666,486,o),
(727,458,o),
(727,352,cs),
(727,0,l)
);
}
);
};
layerId = m01;
shapes = (
{
closed = 1;
nodes = (
(142,0,ls),
(145,0,o),
(147,2,o),
(147,5,cs),
(147,495,ls),
(147,498,o),
(145,500,o),
(142,500,cs),
(70,500,ls),
(67,500,o),
(65,498,o),
(65,495,cs),
(65,5,ls),
(65,2,o),
(67,0,o),
(70,0,cs)
);
},
{
closed = 1;
nodes = (
(476,0,ls),
(479,0,o),
(481,2,o),
(481,5,cs),
(481,352,ls),
(481,469,o),
(422,516,o),
(305,516,cs),
(209,516,o),
(147,446,o),
(147,430,cs),
(147,362,l),
(147,428,o),
(220,486,o),
(295,486,cs),
(352,486,o),
(400,458,o),
(400,352,cs),
(400,5,ls),
(400,2,o),
(402,0,o),
(405,0,cs)
);
},
{
closed = 1;
nodes = (
(476,0,ls),
(479,0,o),
(481,2,o),
(481,5,cs),
(481,352,ls),
(481,469,o),
(422,516,o),
(305,516,cs),
(209,516,o),
(147,446,o),
(147,430,cs),
(147,362,l),
(147,428,o),
(220,486,o),
(295,486,cs),
(352,486,o),
(399,458,o),
(399,352,cs),
(399,5,ls),
(399,2,o),
(401,0,o),
(404,0,cs)
);
},
{
closed = 1;
nodes = (
(824,0,ls),
(827,0,o),
(829,2,o),
(829,5,cs),
(829,352,ls),
(829,469,o),
(756,516,o),
(639,516,cs),
(546,516,o),
(481,447,o),
(474,419,cs),
(473,417,o),
(473,416,o),
(473,413,cs),
(481,362,l),
(481,430,o),
(554,486,o),
(629,486,cs),
(686,486,o),
(747,458,o),
(747,352,cs),
(747,5,ls),
(747,2,o),
(749,0,o),
(752,0,cs)
);
}
);
width = 894;
}
);
unicode = 109;
},
{
glyphname = n;
lastChange = "2025-06-26 18:28:40 +0000";
layers = (
{
layerId = m01;
shapes = (
{
closed = 1;
nodes = (
(142,0,ls),
(145,0,o),
(147,2,o),
(147,5,cs),
(147,495,ls),
(147,498,o),
(145,500,o),
(142,500,cs),
(70,500,ls),
(67,500,o),
(65,498,o),
(65,495,cs),
(65,5,ls),
(65,2,o),
(67,0,o),
(70,0,cs)
);
},
{
closed = 1;
nodes = (
(490,0,ls),
(493,0,o),
(495,2,o),
(495,5,cs),
(495,352,ls),
(495,469,o),
(422,516,o),
(305,516,cs),
(209,516,o),
(147,446,o),
(147,430,cs),
(147,362,l),
(147,428,o),
(220,486,o),
(295,486,cs),
(352,486,o),
(413,458,o),
(413,352,cs),
(413,5,ls),
(413,2,o),
(415,0,o),
(418,0,cs)
);
}
);
width = 560;
}
);
unicode = 110;
},
{
glyphname = o;
lastChange = "2025-06-26 18:28:40 +0000";
layers = (
{
layerId = m01;
shapes = (
{
closed = 1;
nodes = (
(183,12,o),
(123,105,o),
(123,227,cs),
(123,263,ls),
(123,395,o),
(183,488,o),
(290,488,cs),
(397,488,o),
(457,395,o),
(457,263,cs),
(457,227,ls),
(457,105,o),
(397,12,o),
(290,12,cs)
);
},
{
closed = 1;
nodes = (
(40,66,o),
(170,-16,o),
(290,-16,cs),
(410,-16,o),
(540,66,o),
(540,250,cs),
(540,436,o),
(410,516,o),
(290,516,cs),
(170,516,o),
(40,436,o),
(40,250,cs)
);
}
);
width = 580;
}
);
unicode = 111;
},
{
glyphname = p;
lastChange = "2025-06-26 18:28:40 +0000";
layers = (
{
layerId = m01;
shapes = (
{
closed = 1;
nodes = (
(70,495,ls),
(67,495,o),
(65,493,o),
(65,490,cs),
(65,-207,ls),
(65,-210,o),
(67,-212,o),
(70,-212,cs),
(142,-212,ls),
(145,-212,o),
(147,-210,o),
(147,-207,cs),
(147,30,l),
(187,-2,o),
(236,-16,o),
(285,-16,cs),
(385,-16,o),
(505,66,o),
(505,250,cs),
(505,436,o),
(385,516,o),
(285,516,cs),
(194,512,o),
(147,445,o),
(147,430,cs),
(147,490,ls),
(147,493,o),
(145,495,o),
(142,495,cs)
);
},
{
closed = 1;
nodes = (
(372,488,o),
(422,395,o),
(422,263,cs),
(422,227,ls),
(422,105,o),
(372,12,o),
(285,12,cs),
(176,12,o),
(152,63,o),
(147,125,c),
(147,362,ls),
(147,428,o),
(209,488,o),
(285,488,cs)
);
},
{
closed = 1;
nodes = (
(285,14,l),
(285,12,l)
);
}
);
width = 545;
}
);
unicode = 112;
},
{
glyphname = q;
lastChange = "2025-06-26 18:28:40 +0000";
layers = (
{
layerId = m01;
shapes = (
{
closed = 1;
nodes = (
(398,430,ls),
(398,415,o),
(351,512,o),
(260,516,cs),
(160,516,o),
(40,436,o),
(40,250,cs),
(40,66,o),
(160,-16,o),
(260,-16,cs),
(309,-16,o),
(358,-2,o),
(398,30,c),
(398,-207,ls),
(398,-210,o),
(400,-212,o),
(403,-212,cs),
(475,-212,ls),
(478,-212,o),
(480,-210,o),
(480,-207,cs),
(480,495,ls),
(480,498,o),
(478,500,o),
(475,500,cs),
(403,500,ls),
(400,500,o),
(398,498,o),
(398,495,cs)
);
},
{
closed = 1;
nodes = (
(336,488,o),
(398,428,o),
(398,362,cs),
(398,125,l),
(393,63,o),
(369,12,o),
(260,12,cs),
(173,12,o),
(123,105,o),
(123,227,cs),
(123,263,ls),
(123,395,o),
(173,488,o),
(260,488,cs)
);
},
{
closed = 1;
nodes = (
(260,14,l),
(260,12,l)
);
}
);
width = 545;
}
);
unicode = 113;
},
{
glyphname = r;
lastChange = "2025-06-26 18:28:40 +0000";
layers = (
{
layerId = m01;
shapes = (
{
closed = 1;
nodes = (
(142,0,ls),
(145,0,o),
(147,2,o),
(147,5,cs),
(147,495,ls),
(147,498,o),
(145,500,o),
(142,500,cs),
(70,500,ls),
(67,500,o),
(65,498,o),
(65,495,cs),
(65,5,ls),
(65,2,o),
(67,0,o),
(70,0,cs)
);
},
{
closed = 1;
nodes = (
(147,428,o),
(196,486,o),
(261,486,cs),
(307,486,o),
(322,459,o),
(323,370,cs),
(323,367,o),
(325,365,o),
(328,365,cs),
(400,365,ls),
(403,365,o),
(405,367,o),
(405,370,cs),
(404,471,o),
(376,516,o),
(271,516,cs),
(185,516,o),
(147,446,o),
(147,430,c),
(147,362,l)
);
}
);
width = 425;
}
);
unicode = 114;
},
{
glyphname = s;
lastChange = "2025-06-26 18:28:40 +0000";
layers = (
{
layerId = m01;
shapes = (
{
closed = 1;
nodes = (
(403,392,ls),
(406,392,o),
(408,394,o),
(408,397,cs),
(405,499,o),
(301,516,o),
(239,516,cs),
(164,516,o),
(62,474,o),
(62,374,cs),
(62,310,o),
(124,266,o),
(166,248,cs),
(251,211,ls),
(287,195,o),
(378,165,o),
(378,109,cs),
(378,39,o),
(291,16,o),
(241,16,cs),
(143,16,o),
(114,52,o),
(113,127,cs),
(113,130,o),
(111,132,o),
(108,132,cs),
(50,132,ls),
(47,132,o),
(45,130,o),
(45,127,cs),
(48,13,o),
(166,-16,o),
(252,-16,cs),
(322,-16,o),
(433,29,o),
(433,123,cs),
(433,231,o),
(344,254,o),
(304,272,cs),
(222,309,ls),
(186,325,o),
(120,346,o),
(120,402,cs),
(120,451,o),
(186,484,o),
(239,484,cs),
(308,484,o),
(339,449,o),
(341,397,cs),
(341,394,o),
(343,392,o),
(346,392,cs)
);
}
);
width = 478;
}
);
unicode = 115;
},
{
glyphname = t;
lastChange = "2025-06-26 18:29:36 +0000";
layers = (
{
layerId = m01;
shapes = (
{
closed = 1;
nodes = (
(288,0,l),
(288,28,l),
(243,28,ls),
(171,30,o),
(170,85,o),
(170,214,cs),
(170,470,l),
(283,470,ls),
(286,470,o),
(288,472,o),
(288,475,cs),
(288,495,ls),
(288,498,o),
(286,500,o),
(283,500,cs),
(170,500,l),
(170,655,ls),
(170,658,o),
(168,660,o),
(165,660,cs),
(93,660,ls),
(90,660,o),
(88,658,o),
(88,655,cs),
(88,500,l),
(15,500,ls),
(12,500,o),
(10,498,o),
(10,495,cs),
(10,475,ls),
(10,472,o),
(12,470,o),
(15,470,cs),
(88,470,l),
(88,213,ls),
(88,41,o),
(155,1,o),
(243,0,cs)
);
}
);
width = 298;
}
);
unicode = 116;
},
{
glyphname = u;
lastChange = "2025-06-26 18:28:40 +0000";
layers = (
{
layerId = m01;
shapes = (
{
closed = 1;
nodes = (
(403,130,l),
(398,68,o),
(374,17,o),
(265,17,cs),
(208,17,o),
(147,45,o),
(147,151,cs),
(147,498,ls),
(147,501,o),
(145,503,o),
(142,503,cs),
(70,503,ls),
(67,503,o),
(65,501,o),
(65,498,cs),
(65,151,ls),
(65,60,o),
(104,-16,o),
(265,-16,cs),
(314,-16,o),
(363,3,o),
(403,35,c),
(403,5,ls),
(403,2,o),
(405,0,o),
(408,0,cs),
(480,0,ls),
(483,0,o),
(485,2,o),
(485,5,cs),
(485,498,ls),
(485,501,o),
(483,503,o),
(480,503,cs),
(408,503,ls),
(405,503,o),
(403,501,o),
(403,498,cs)
);
}
);
width = 550;
}
);
unicode = 117;
},
{
glyphname = v;
lastChange = "2025-06-26 18:28:40 +0000";
layers = (
{
layerId = m01;
shapes = (
{
closed = 1;
nodes = (
(284,0,ls),
(287,0,o),
(289,2,o),
(288,6,cs),
(113,496,ls),
(112,498,o),
(111,500,o),
(108,500,cs),
(31,500,ls),
(28,500,o),
(26,498,o),
(27,494,cs),
(202,4,ls),
(203,2,o),
(204,0,o),
(207,0,cs)
);
},
{
closed = 1;
nodes = (
(260,6,ls),
(259,2,o),
(261,0,o),
(264,0,cs),
(286,0,ls),
(289,0,o),
(290,2,o),
(291,4,cs),
(468,494,ls),
(469,498,o),
(467,500,o),
(464,500,cs),
(438,500,ls),
(435,500,o),
(434,498,o),
(433,496,cs)
);
}
);
width = 495;
}
);
unicode = 118;
},
{
glyphname = w;
lastChange = "2025-06-26 18:28:40 +0000";
layers = (
{
layerId = m01;
shapes = (
{
closed = 1;
nodes = (
(254,0,ls),
(257,0,o),
(259,2,o),
(258,6,cs),
(103,496,ls),
(102,498,o),
(101,500,o),
(98,500,cs),
(21,500,ls),
(18,500,o),
(16,498,o),
(17,494,cs),
(172,4,ls),
(173,2,o),
(174,0,o),
(177,0,cs)
);
},
{
closed = 1;
nodes = (
(230,6,ls),
(229,2,o),
(231,0,o),
(234,0,cs),
(256,0,ls),
(259,0,o),
(260,2,o),
(261,4,cs),
(418,494,ls),
(419,498,o),
(417,500,o),
(414,500,cs),
(388,500,ls),
(385,500,o),
(384,498,o),
(383,496,cs)
);
},
{
closed = 1;
nodes = (
(572,0,ls),
(575,0,o),
(577,2,o),
(576,6,cs),
(421,496,ls),
(420,498,o),
(419,500,o),
(416,500,cs),
(388,500,ls),
(385,500,o),
(384,498,o),
(383,496,cs),
(361,425,ls),
(360,422,o),
(360,422,o),
(361,419,cs),
(490,4,ls),
(491,2,o),
(492,0,o),
(495,0,cs)
);
},
{
closed = 1;
nodes = (
(548,6,ls),
(547,2,o),
(549,0,o),
(552,0,cs),
(574,0,ls),
(577,0,o),
(578,2,o),
(579,4,cs),
(736,494,ls),
(737,498,o),
(735,500,o),
(732,500,cs),
(706,500,ls),
(703,500,o),
(702,498,o),
(701,496,cs)
);
}
);
width = 753;
}
);
unicode = 119;
},
{
glyphname = x;
lastChange = "2025-06-26 18:28:40 +0000";
layers = (
{
layerId = m01;
shapes = (
{
closed = 1;
nodes = (
(525,0,ls),
(529,0,o),
(530,3,o),
(528,6,cs),
(136,497,ls),
(135,499,o),
(132,500,o),
(130,500,cs),
(33,500,ls),
(29,500,o),
(28,497,o),
(30,494,cs),
(422,3,ls),
(423,1,o),
(426,0,o),
(428,0,cs)
);
},
{
closed = 1;
nodes = (
(302,273,ls),
(304,273,o),
(307,274,o),
(308,276,cs),
(482,494,ls),
(484,497,o),
(483,500,o),
(479,500,cs),
(452,500,ls),
(450,500,o),
(447,499,o),
(446,497,cs),
(272,279,ls),
(270,276,o),
(271,273,o),
(275,273,cs)
);
},
{
closed = 1;
nodes = (
(257,273,ls),
(255,273,o),
(252,272,o),
(251,270,cs),
(40,6,ls),
(38,3,o),
(39,0,o),
(43,0,cs),
(70,0,ls),
(72,0,o),
(75,1,o),
(76,3,cs),
(287,267,ls),
(289,270,o),
(288,273,o),
(284,273,cs)
);
}
);
width = 558;
}
);
unicode = 120;
},
{
glyphname = y;
lastChange = "2025-06-26 18:28:40 +0000";
layers = (
{
layerId = m01;
shapes = (
{
closed = 1;
nodes = (
(294,-3,ls),
(295,-1,o),
(296,2,o),
(295,4,cs),
(113,496,ls),
(112,498,o),
(110,500,o),
(108,500,cs),
(31,500,ls),
(28,500,o),
(26,498,o),
(27,494,cs),
(233,-69,ls),
(234,-73,o),
(237,-74,o),
(239,-71,cs)
);
},
{
closed = 1;
nodes = (
(76,-207,ls),
(76,-210,o),
(78,-212,o),
(81,-212,cs),
(196,-211,o),
(231,-165,o),
(294,0,cs),
(484,494,ls),
(485,498,o),
(483,500,o),
(480,500,cs),
(454,500,ls),
(452,500,o),
(450,498,o),
(449,496,cs),
(261,0,ls),
(216,-119,o),
(206,-179,o),
(81,-180,cs),
(78,-180,o),
(76,-182,o),
(76,-185,cs)
);
}
);
width = 511;
}
);
unicode = 121;
},
{
glyphname = z;
lastChange = "2025-06-26 18:28:40 +0000";
layers = (
{
layerId = m01;
shapes = (
{
closed = 1;
nodes = (
(490,27,ls),
(490,30,o),
(488,32,o),
(485,32,cs),
(95,32,ls),
(92,32,o),
(90,30,o),
(90,27,cs),
(90,5,ls),
(90,2,o),
(92,0,o),
(95,0,cs),
(485,0,ls),
(488,0,o),
(490,2,o),
(490,5,cs)
);
},
{
closed = 1;
nodes = (
(465,495,ls),
(465,498,o),
(463,500,o),
(460,500,cs),
(96,500,ls),
(93,500,o),
(91,498,o),
(91,495,cs),
(91,475,ls),
(91,472,o),
(93,470,o),
(96,470,cs),
(460,470,ls),
(463,470,o),
(465,472,o),
(465,475,cs)
);
},
{
closed = 1;
nodes = (
(372,470,ls),
(370,470,o),
(367,469,o),
(366,467,cs),
(95,38,ls),
(93,34,o),
(94,32,o),
(98,32,cs),
(184,32,ls),
(186,32,o),
(189,33,o),
(190,35,cs),
(461,464,ls),
(463,468,o),
(462,470,o),
(458,470,cs)
);
}
);
width = 580;
}
);
unicode = 122;
},
{
glyphname = g.ss01;
lastChange = "2025-06-26 18:28:40 +0000";
layers = (
{
layerId = m01;
shapes = (
{
closed = 1;
nodes = (
(390,224,o),
(370,147,o),
(263,147,cs),
(156,147,o),
(136,224,o),
(136,306,cs),
(136,326,ls),
(136,408,o),
(156,485,o),
(263,485,cs),
(370,485,o),
(390,408,o),
(390,326,cs),
(390,306,ls)
);
},
{
closed = 1;
nodes = (
(53,189,o),
(143,117,o),
(263,117,cs),
(383,117,o),
(473,189,o),
(473,314,cs),
(473,318,ls),
(473,443,o),
(383,515,o),
(263,515,cs),
(143,515,o),
(53,443,o),
(53,318,cs),
(53,314,ls)
);
},
{
closed = 1;
nodes = (
(39,111,o),
(41,38,o),
(135,0,c),
(53,-45,o),
(40,-74,o),
(40,-100,cs),
(40,-176,o),
(108,-228,o),
(263,-228,cs),
(350,-228,ls),
(438,-228,o),
(536,-181,o),
(536,-85,cs),
(536,-15,o),
(499,65,o),
(349,65,cs),
(215,65,ls),
(136,65,o),
(64,57,o),
(141,164,cs),
(143,167,o),
(142,171,o),
(139,172,cs),
(114,185,ls),
(111,187,o),
(109,186,o),
(107,184,cs)
);
},
{
closed = 1;
nodes = (
(229,-197,o),
(128,-203,o),
(128,-109,cs),
(128,-64,o),
(164,-19,o),
(204,-19,cs),
(235,-19,l),
(331,-18,ls),
(419,-17,o),
(496,-28,o),
(496,-85,cs),
(496,-179,o),
(411,-197,o),
(350,-197,cs),
(283,-197,ls)
);
},
{
closed = 1;
nodes = (
(360,465,ls),
(361,463,o),
(363,460,o),
(365,460,cs),
(512,432,ls),
(515,431,o),
(517,434,o),
(517,437,cs),
(517,495,ls),
(517,498,o),
(515,500,o),
(512,500,cs),
(356,500,ls),
(353,500,o),
(351,498,o),
(352,494,cs)
);
}
);
width = 556;
}
);
},
{
glyphname = period;
lastChange = "2025-06-26 18:28:40 +0000";
layers = (
{
layerId = m01;
shapes = (
{
closed = 1;
nodes = (
(111,-16,o),
(132,4,o),
(132,40,cs),
(132,76,o),
(111,96,o),
(76,96,cs),
(40,96,o),
(20,76,o),
(20,40,cs),
(20,4,o),
(40,-16,o),
(76,-16,cs)
);
}
);
width = 152;
}
);
unicode = 46;
},
